<?xml version="1.0" encoding="utf-8"?>
<!-- Generator: Adobe Illustrator 19.2.0, SVG Export Plug-In . SVG Version: 6.00 Build 0)  -->
<svg version="1.1" id="Calque_1" xmlns="http://www.w3.org/2000/svg" xmlns:xlink="http://www.w3.org/1999/xlink" x="0px" y="0px"
	 viewBox="0 0 158 53.6" style="enable-background:new 0 0 158 53.6;" xml:space="preserve">
<style type="text/css">
	.st0{fill:#F2950A;}
	.st1{fill:#9D9D9F;}
	.st2{fill:#9C9C9E;}
</style>
<g>
	<polygon class="st0" points="2.4,47.4 2.4,6.7 17.4,21.8 17.4,47.4 	"/>
	<polygon class="st0" points="45.4,47.4 45.4,6.7 31.4,21.8 31.4,47.4 	"/>
	<polygon class="st0" points="24.2,23.9 7,6.2 41.4,6.2 	"/>
	<path class="st1" d="M64.9,25.4L64.9,25.4L64.9,25.4H52.8l0,0l-5.5,22h7l1.2-3h3h3.7l1.1,3h7.1L64.9,25.4z M56.5,38.4l2.3-8.4
		l2.4,8.4H56.5z"/>
	<g>
		<polygon class="st2" points="78.4,47.4 78.4,32.4 72.4,32.4 72.4,25.5 91.4,25.5 91.4,32.4 85.4,32.4 85.4,47.4 		"/>
		<path class="st2" d="M79.4,46.4h6v-15h6v-6h-18v6h6V46.4z"/>
	</g>
	<path class="st1" d="M114.6,31.8c0,0,0-6.3-4.2-6.3c-4.4-0.1-17-0.1-17-0.1v22h7v-7.2l5.6,7.2h8.6l-5.5-9.1
		C109.1,38.3,114.8,36.1,114.6,31.8z M104.7,34.4h-4.3v-4h4.3C106.3,32.4,104.7,34.4,104.7,34.4z"/>
	<polygon class="st1" points="116.6,25.5 116.6,47.4 135.6,47.4 135.6,42.4 124.6,42.4 124.6,38.6 135.6,38.8 135.6,34.4 
		124.6,34.4 124.6,31.1 135.6,31.1 135.6,25.5 	"/>
	<polygon class="st1" points="137.6,25.5 137.6,47.4 153.6,47.4 153.6,41.4 145.6,41.4 145.6,25.5 	"/>
</g>
</svg>
